<svg width="39" height="39" viewBox="0 0 39 39" fill="none" xmlns="http://www.w3.org/2000/svg">
<circle cx="19.2275" cy="19.6098" r="18.8618" fill="#333333"/>
<g clip-path="url(#clip0_235_744)">
<path d="M24.5086 10.5561C24.5086 11.1564 24.2701 11.7321 23.8456 12.1566C23.4211 12.5811 22.8454 12.8196 22.2451 12.8196C21.6448 12.8196 21.0691 12.5811 20.6447 12.1566C20.2202 11.7321 19.9817 11.1564 19.9817 10.5561C19.9817 9.95584 20.2202 9.38014 20.6447 8.95566C21.0691 8.53119 21.6448 8.29272 22.2451 8.29272C22.8454 8.29272 23.4211 8.53119 23.8456 8.95566C24.2701 9.38014 24.5086 9.95584 24.5086 10.5561ZM24.5086 24.8911C24.1084 24.8911 23.7246 25.0501 23.4416 25.3331C23.1586 25.616 22.9996 25.9998 22.9996 26.4C22.9996 26.8002 23.1586 27.184 23.4416 27.467C23.7246 27.75 24.1084 27.909 24.5086 27.909C24.9088 27.909 25.2926 27.75 25.5755 27.467C25.8585 27.184 26.0175 26.8002 26.0175 26.4C26.0175 25.9998 25.8585 25.616 25.5755 25.3331C25.2926 25.0501 24.9088 24.8911 24.5086 24.8911ZM27.285 17.4822L24.4029 14.6001C24.3358 14.5163 24.2509 14.4484 24.1544 14.4014C24.0578 14.3545 23.952 14.3296 23.8446 14.3285H13.1915C12.9914 14.3285 12.7995 14.408 12.658 14.5495C12.5165 14.691 12.437 14.8829 12.437 15.083C12.437 15.2831 12.5165 15.475 12.658 15.6165C12.7995 15.758 12.9914 15.8374 13.1915 15.8374H14.9604C16.016 15.8374 16.6997 16.9516 16.2217 17.8927L12.4919 25.2357C12.4555 25.3074 12.4254 25.3836 12.422 25.464C12.417 25.5845 12.4185 25.7069 12.4244 25.8274C12.4312 25.9655 12.475 26.1004 12.553 26.2172C12.665 26.3853 12.8384 26.5026 13.0361 26.5441C13.2337 26.5857 13.4397 26.548 13.6098 26.4392C13.7187 26.3696 13.8073 26.2745 13.8689 26.1634C13.9383 26.0383 13.9827 25.8996 14.055 25.776L15.0452 24.0827C15.299 23.6488 15.766 23.3822 16.2686 23.3822C17.2978 23.3822 17.9885 24.4462 17.5621 25.3829L15.5605 29.7801C15.513 29.8591 15.4809 29.9459 15.4655 30.036C15.4501 30.1258 15.4427 30.2176 15.4428 30.3087C15.4428 30.4621 15.4887 30.6131 15.5762 30.7416C15.6896 30.9082 15.8638 31.0236 16.0614 31.0631C16.259 31.1026 16.4642 31.0631 16.6329 30.953C16.7521 30.8752 16.8463 30.7666 16.9067 30.6402C16.9571 30.5348 16.9903 30.4213 17.0427 30.3169L23.1646 18.099C23.6006 17.2289 24.7646 17.0487 25.4433 17.7462L26.2288 18.5535C26.374 18.6762 26.5601 18.7395 26.75 18.7309C26.9398 18.7222 27.1194 18.6422 27.2529 18.5069C27.3863 18.3715 27.4638 18.1908 27.4697 18.0008C27.4757 17.8109 27.4097 17.6256 27.285 17.4822Z" fill="white"/>
</g>
<defs>
<clipPath id="clip0_235_744">
<rect width="22.6341" height="22.6341" fill="white" transform="translate(7.91064 8.29272)"/>
</clipPath>
</defs>
</svg>
