<svg xmlns="http://www.w3.org/2000/svg" width="24" height="24" viewBox="0 0 24 24" fill="none">
  <path d="M10.9816 2.73981C11.3029 1.7534 12.6984 1.7534 13.0186 2.73981L14.6455 7.74574C14.7155 7.96047 14.8516 8.14756 15.0344 8.28029C15.2171 8.41302 15.4371 8.48458 15.663 8.48474H20.927C21.9648 8.48474 22.3954 9.8128 21.5568 10.4233L17.2984 13.5164C17.1155 13.6494 16.9794 13.8368 16.9095 14.0519C16.8397 14.267 16.8397 14.4987 16.9096 14.7138L18.5354 19.7197C18.8568 20.7072 17.7268 21.5276 16.8882 20.9171L12.6299 17.824C12.4468 17.691 12.2264 17.6193 12.0001 17.6193C11.7738 17.6193 11.5534 17.691 11.3703 17.824L7.11198 20.9171C6.27337 21.5276 5.14345 20.7061 5.46475 19.7197L7.09056 14.7138C7.16047 14.4987 7.16051 14.267 7.09067 14.0519C7.02083 13.8368 6.8847 13.6494 6.70178 13.5164L2.44341 10.4233C1.60373 9.8128 2.03642 8.48474 3.07317 8.48474H8.33615C8.56219 8.4848 8.78245 8.41335 8.9654 8.28061C9.14835 8.14786 9.28462 7.96064 9.35469 7.74574L10.9816 2.73981Z" stroke="#0095D9" stroke-width="1.5" stroke-linecap="round" stroke-linejoin="round"/>
</svg>