<svg xmlns="http://www.w3.org/2000/svg" width="32" height="32" viewBox="0 0 32 32" fill="none">
  <path fill-rule="evenodd" clip-rule="evenodd" d="M32 16C32 24.8366 24.8366 32 16 32C7.16344 32 0 24.8366 0 16C0 7.16344 7.16344 0 16 0C24.8366 0 32 7.16344 32 16ZM20 10C20 12.2091 18.2092 14 16 14C13.7909 14 12 12.2091 12 10C12 7.79086 13.7909 6 16 6C18.2092 6 20 7.79086 20 10ZM15.9999 18C11.9648 18 8.48788 20.39 6.90748 23.8314C9.10806 26.384 12.3653 28 16 28C19.6346 28 22.8918 26.3842 25.0924 23.8316C23.512 20.39 20.035 18 15.9999 18Z" fill="#BDBDBD"/>
</svg>