<svg width="65" height="15" viewBox="0 0 65 15" fill="none" xmlns="http://www.w3.org/2000/svg">
<rect x="0.12207" y="0.951294" width="64" height="14" rx="7" fill="#219653"/>
<path d="M11.2666 6.16614C11.0348 6.16614 10.8291 6.21171 10.6494 6.30286C10.4723 6.3914 10.3226 6.5203 10.2002 6.68958C10.0804 6.85885 9.98926 7.06327 9.92676 7.30286C9.86426 7.54244 9.83301 7.81197 9.83301 8.11145C9.83301 8.5151 9.88249 8.86015 9.98145 9.14661C10.083 9.43046 10.2393 9.64791 10.4502 9.79895C10.6611 9.94739 10.9333 10.0216 11.2666 10.0216C11.4984 10.0216 11.7301 9.99556 11.9619 9.94348C12.1963 9.8914 12.4502 9.81718 12.7236 9.72083V10.7365C12.471 10.8406 12.2223 10.9148 11.9775 10.9591C11.7327 11.006 11.458 11.0294 11.1533 11.0294C10.5648 11.0294 10.0804 10.9083 9.7002 10.6661C9.32259 10.4213 9.04264 10.0802 8.86035 9.6427C8.67806 9.2026 8.58691 8.68958 8.58691 8.10364C8.58691 7.67135 8.64551 7.27551 8.7627 6.91614C8.87988 6.55676 9.05176 6.24556 9.27832 5.98254C9.50488 5.71952 9.78483 5.5164 10.1182 5.37317C10.4515 5.22994 10.8343 5.15833 11.2666 5.15833C11.5505 5.15833 11.8343 5.19478 12.1182 5.2677C12.4046 5.33801 12.6781 5.43567 12.9385 5.56067L12.5479 6.54504C12.3343 6.44348 12.1195 6.35494 11.9033 6.27942C11.6872 6.2039 11.4749 6.16614 11.2666 6.16614ZM17.8174 8.75989C17.8174 9.12447 17.7679 9.44739 17.6689 9.72864C17.5726 10.0099 17.4307 10.2482 17.2432 10.4435C17.0583 10.6362 16.8343 10.782 16.5713 10.881C16.3109 10.9799 16.0166 11.0294 15.6885 11.0294C15.3812 11.0294 15.0986 10.9799 14.8408 10.881C14.5856 10.782 14.363 10.6362 14.1729 10.4435C13.9854 10.2482 13.8395 10.0099 13.7354 9.72864C13.6338 9.44739 13.583 9.12447 13.583 8.75989C13.583 8.27551 13.6689 7.86536 13.8408 7.52942C14.0127 7.19348 14.2575 6.93827 14.5752 6.76379C14.8929 6.58931 15.2718 6.50208 15.7119 6.50208C16.1208 6.50208 16.4827 6.58931 16.7979 6.76379C17.1156 6.93827 17.3643 7.19348 17.5439 7.52942C17.7262 7.86536 17.8174 8.27551 17.8174 8.75989ZM14.7979 8.75989C14.7979 9.04635 14.8291 9.28723 14.8916 9.48254C14.9541 9.67786 15.0518 9.82499 15.1846 9.92395C15.3174 10.0229 15.4906 10.0724 15.7041 10.0724C15.915 10.0724 16.0856 10.0229 16.2158 9.92395C16.3486 9.82499 16.445 9.67786 16.5049 9.48254C16.5674 9.28723 16.5986 9.04635 16.5986 8.75989C16.5986 8.47083 16.5674 8.23124 16.5049 8.04114C16.445 7.84843 16.3486 7.7039 16.2158 7.60754C16.083 7.51119 15.9098 7.46301 15.6963 7.46301C15.3812 7.46301 15.152 7.57109 15.0088 7.78723C14.8682 8.00338 14.7979 8.3276 14.7979 8.75989ZM21.2822 6.50208C21.7484 6.50208 22.1234 6.62968 22.4072 6.88489C22.6911 7.13749 22.833 7.54374 22.833 8.10364V10.9513H21.6416V8.40051C21.6416 8.08801 21.5843 7.85234 21.4697 7.69348C21.3577 7.53463 21.1807 7.4552 20.9385 7.4552C20.5739 7.4552 20.3252 7.5789 20.1924 7.82629C20.0596 8.07369 19.9932 8.43046 19.9932 8.89661V10.9513H18.8018V6.58411H19.7119L19.8721 7.1427H19.9385C20.0322 6.99166 20.1481 6.86926 20.2861 6.77551C20.4268 6.68176 20.5817 6.61275 20.751 6.56848C20.9229 6.52421 21.0999 6.50208 21.2822 6.50208ZM26.4736 7.47864H25.4424V10.9513H24.251V7.47864H23.5947V6.90442L24.251 6.58411V6.26379C24.251 5.8914 24.3135 5.60234 24.4385 5.39661C24.5661 5.18827 24.7445 5.04244 24.9736 4.95911C25.2054 4.87317 25.4788 4.8302 25.7939 4.8302C26.0257 4.8302 26.2367 4.84973 26.4268 4.88879C26.6169 4.92525 26.7718 4.96692 26.8916 5.01379L26.5869 5.88879C26.4958 5.86015 26.3968 5.83411 26.29 5.81067C26.1833 5.78723 26.0609 5.77551 25.9229 5.77551C25.7562 5.77551 25.6338 5.82629 25.5557 5.92786C25.4801 6.02681 25.4424 6.15442 25.4424 6.31067V6.58411H26.4736V7.47864ZM28.3486 6.58411V10.9513H27.1572V6.58411H28.3486ZM27.7549 4.87317C27.932 4.87317 28.0843 4.91484 28.2119 4.99817C28.3395 5.0789 28.4033 5.23124 28.4033 5.4552C28.4033 5.67655 28.3395 5.8302 28.2119 5.91614C28.0843 5.99947 27.932 6.04114 27.7549 6.04114C27.5752 6.04114 27.4215 5.99947 27.2939 5.91614C27.1689 5.8302 27.1064 5.67655 27.1064 5.4552C27.1064 5.23124 27.1689 5.0789 27.2939 4.99817C27.4215 4.91484 27.5752 4.87317 27.7549 4.87317ZM32.0361 6.50208C32.096 6.50208 32.165 6.50598 32.2432 6.51379C32.3239 6.519 32.389 6.52681 32.4385 6.53723L32.3486 7.65442C32.3096 7.6414 32.2536 7.63228 32.1807 7.62708C32.1104 7.61926 32.0492 7.61536 31.9971 7.61536C31.8434 7.61536 31.6937 7.63489 31.5479 7.67395C31.4046 7.71301 31.2757 7.77681 31.1611 7.86536C31.0465 7.95129 30.9554 8.06588 30.8877 8.20911C30.8226 8.34973 30.79 8.52291 30.79 8.72864V10.9513H29.5986V6.58411H30.501L30.6768 7.31848H30.7354C30.8213 7.17004 30.9281 7.03463 31.0557 6.91223C31.1859 6.78723 31.333 6.68827 31.4971 6.61536C31.6637 6.53984 31.8434 6.50208 32.0361 6.50208ZM38.3604 6.50208C38.8551 6.50208 39.2288 6.62968 39.4814 6.88489C39.7367 7.13749 39.8643 7.54374 39.8643 8.10364V10.9513H38.6689V8.40051C38.6689 8.08801 38.6156 7.85234 38.5088 7.69348C38.402 7.53463 38.2367 7.4552 38.0127 7.4552C37.6976 7.4552 37.4736 7.56848 37.3408 7.79504C37.208 8.019 37.1416 8.34062 37.1416 8.75989V10.9513H35.9502V8.40051C35.9502 8.19218 35.9268 8.0177 35.8799 7.87708C35.833 7.73645 35.7614 7.63098 35.665 7.56067C35.5687 7.49036 35.445 7.4552 35.2939 7.4552C35.0726 7.4552 34.8981 7.51119 34.7705 7.62317C34.6455 7.73254 34.5557 7.8953 34.501 8.11145C34.4489 8.32499 34.4229 8.58671 34.4229 8.89661V10.9513H33.2314V6.58411H34.1416L34.3018 7.1427H34.3682C34.4567 6.99166 34.5674 6.86926 34.7002 6.77551C34.8356 6.68176 34.984 6.61275 35.1455 6.56848C35.307 6.52421 35.471 6.50208 35.6377 6.50208C35.958 6.50208 36.2288 6.55416 36.4502 6.65833C36.6742 6.76249 36.846 6.92395 36.9658 7.1427H37.0713C37.2015 6.91874 37.3851 6.75598 37.6221 6.65442C37.8617 6.55286 38.1077 6.50208 38.3604 6.50208ZM42.8799 6.49426C43.4658 6.49426 43.915 6.62187 44.2275 6.87708C44.54 7.13228 44.6963 7.5203 44.6963 8.04114V10.9513H43.8643L43.6338 10.3575H43.6025C43.4775 10.5138 43.3499 10.6414 43.2197 10.7404C43.0895 10.8393 42.9398 10.9122 42.7705 10.9591C42.6012 11.006 42.3955 11.0294 42.1533 11.0294C41.8955 11.0294 41.6637 10.9799 41.458 10.881C41.2549 10.782 41.0947 10.631 40.9775 10.4279C40.8604 10.2221 40.8018 9.96171 40.8018 9.64661C40.8018 9.18306 40.9645 8.84192 41.29 8.62317C41.6156 8.40181 42.1038 8.27942 42.7549 8.25598L43.5127 8.23254V8.04114C43.5127 7.81197 43.4528 7.644 43.333 7.53723C43.2132 7.43046 43.0465 7.37708 42.833 7.37708C42.6221 7.37708 42.415 7.40702 42.2119 7.46692C42.0088 7.52681 41.8057 7.60234 41.6025 7.69348L41.208 6.88879C41.4398 6.7664 41.6989 6.67004 41.9854 6.59973C42.2744 6.52942 42.5726 6.49426 42.8799 6.49426ZM43.5127 8.92786L43.0518 8.94348C42.6663 8.9539 42.3981 9.02291 42.2471 9.15051C42.0986 9.27812 42.0244 9.44609 42.0244 9.65442C42.0244 9.83671 42.0778 9.96692 42.1846 10.045C42.2913 10.1206 42.4307 10.1583 42.6025 10.1583C42.8577 10.1583 43.0726 10.0828 43.2471 9.93176C43.4242 9.78072 43.5127 9.56588 43.5127 9.28723V8.92786ZM47.3096 11.0294C46.8226 11.0294 46.4255 10.8393 46.1182 10.4591C45.8135 10.0763 45.6611 9.5151 45.6611 8.77551C45.6611 8.02812 45.8161 7.46301 46.126 7.0802C46.4359 6.69478 46.8408 6.50208 47.3408 6.50208C47.5492 6.50208 47.7327 6.53072 47.8916 6.58801C48.0505 6.6453 48.1872 6.72213 48.3018 6.81848C48.4189 6.91484 48.5179 7.02291 48.5986 7.1427H48.6377C48.6221 7.05937 48.6025 6.93697 48.5791 6.77551C48.5583 6.61145 48.5479 6.44348 48.5479 6.27161V4.87317H49.7432V10.9513H48.8291L48.5986 10.3849H48.5479C48.4723 10.5047 48.3773 10.6141 48.2627 10.713C48.1507 10.8094 48.0166 10.8862 47.8604 10.9435C47.7041 11.0008 47.5205 11.0294 47.3096 11.0294ZM47.7275 10.0802C48.0531 10.0802 48.2822 9.98385 48.415 9.79114C48.5505 9.59583 48.6221 9.30286 48.6299 8.91223V8.78333C48.6299 8.35885 48.5648 8.03463 48.4346 7.81067C48.3044 7.58411 48.0622 7.47083 47.708 7.47083C47.445 7.47083 47.2393 7.58411 47.0908 7.81067C46.9424 8.03723 46.8682 8.36405 46.8682 8.79114C46.8682 9.21822 46.9424 9.53984 47.0908 9.75598C47.2419 9.97213 47.4541 10.0802 47.7275 10.0802ZM54.958 8.75989C54.958 9.12447 54.9085 9.44739 54.8096 9.72864C54.7132 10.0099 54.5713 10.2482 54.3838 10.4435C54.1989 10.6362 53.9749 10.782 53.7119 10.881C53.4515 10.9799 53.1572 11.0294 52.8291 11.0294C52.5218 11.0294 52.2393 10.9799 51.9814 10.881C51.7262 10.782 51.5036 10.6362 51.3135 10.4435C51.126 10.2482 50.9801 10.0099 50.876 9.72864C50.7744 9.44739 50.7236 9.12447 50.7236 8.75989C50.7236 8.27551 50.8096 7.86536 50.9814 7.52942C51.1533 7.19348 51.3981 6.93827 51.7158 6.76379C52.0335 6.58931 52.4124 6.50208 52.8525 6.50208C53.2614 6.50208 53.6234 6.58931 53.9385 6.76379C54.2562 6.93827 54.5049 7.19348 54.6846 7.52942C54.8669 7.86536 54.958 8.27551 54.958 8.75989ZM51.9385 8.75989C51.9385 9.04635 51.9697 9.28723 52.0322 9.48254C52.0947 9.67786 52.1924 9.82499 52.3252 9.92395C52.458 10.0229 52.6312 10.0724 52.8447 10.0724C53.0557 10.0724 53.2262 10.0229 53.3564 9.92395C53.4893 9.82499 53.5856 9.67786 53.6455 9.48254C53.708 9.28723 53.7393 9.04635 53.7393 8.75989C53.7393 8.47083 53.708 8.23124 53.6455 8.04114C53.5856 7.84843 53.4893 7.7039 53.3564 7.60754C53.2236 7.51119 53.0505 7.46301 52.8369 7.46301C52.5218 7.46301 52.2926 7.57109 52.1494 7.78723C52.0088 8.00338 51.9385 8.3276 51.9385 8.75989Z" fill="white"/>
</svg>
