<svg width="48" height="15" viewBox="0 0 48 15" fill="none" xmlns="http://www.w3.org/2000/svg">
<rect x="0.12207" y="0.609863" width="47" height="14" rx="7" fill="#BB6BD9"/>
<path d="M12.3369 10.6099L11.9229 9.25049H9.84082L9.42676 10.6099H8.12207L10.1377 4.87549H11.6182L13.6416 10.6099H12.3369ZM11.6338 8.23486L11.2197 6.90674C11.1937 6.8182 11.1585 6.70492 11.1143 6.56689C11.0726 6.42627 11.0296 6.28434 10.9854 6.14111C10.9437 5.99528 10.9098 5.86898 10.8838 5.76221C10.8577 5.86898 10.8213 6.00179 10.7744 6.16064C10.7301 6.31689 10.6872 6.46533 10.6455 6.60596C10.6038 6.74658 10.5739 6.84684 10.5557 6.90674L10.1455 8.23486H11.6338ZM18.2666 4.89893C19.0036 4.89893 19.5413 5.05778 19.8799 5.37549C20.2184 5.69059 20.3877 6.12549 20.3877 6.68018C20.3877 6.93018 20.3499 7.16976 20.2744 7.39893C20.1989 7.62549 20.0752 7.82731 19.9033 8.00439C19.734 8.18148 19.5075 8.3221 19.2236 8.42627C18.9398 8.52783 18.5895 8.57861 18.1729 8.57861H17.6533V10.6099H16.4424V4.89893H18.2666ZM18.2041 5.89111H17.6533V7.58643H18.0518C18.2783 7.58643 18.4749 7.55648 18.6416 7.49658C18.8083 7.43669 18.9372 7.34294 19.0283 7.21533C19.1195 7.08773 19.165 6.92367 19.165 6.72314C19.165 6.44189 19.0869 6.23356 18.9307 6.09814C18.7744 5.96012 18.5322 5.89111 18.2041 5.89111ZM23.1611 6.15283C23.7471 6.15283 24.1963 6.28044 24.5088 6.53564C24.8213 6.79085 24.9775 7.17887 24.9775 7.69971V10.6099H24.1455L23.915 10.0161H23.8838C23.7588 10.1724 23.6312 10.3 23.501 10.3989C23.3708 10.4979 23.221 10.5708 23.0518 10.6177C22.8825 10.6646 22.6768 10.688 22.4346 10.688C22.1768 10.688 21.945 10.6385 21.7393 10.5396C21.5361 10.4406 21.376 10.2896 21.2588 10.0864C21.1416 9.8807 21.083 9.62028 21.083 9.30518C21.083 8.84163 21.2458 8.50049 21.5713 8.28174C21.8968 8.06038 22.3851 7.93799 23.0361 7.91455L23.7939 7.89111V7.69971C23.7939 7.47054 23.734 7.30257 23.6143 7.1958C23.4945 7.08903 23.3278 7.03564 23.1143 7.03564C22.9033 7.03564 22.6963 7.06559 22.4932 7.12549C22.29 7.18538 22.0869 7.2609 21.8838 7.35205L21.4893 6.54736C21.721 6.42497 21.9801 6.32861 22.2666 6.2583C22.5557 6.18799 22.8538 6.15283 23.1611 6.15283ZM23.7939 8.58643L23.333 8.60205C22.9476 8.61247 22.6794 8.68148 22.5283 8.80908C22.3799 8.93669 22.3057 9.10465 22.3057 9.31299C22.3057 9.49528 22.359 9.62549 22.4658 9.70361C22.5726 9.77913 22.7119 9.81689 22.8838 9.81689C23.139 9.81689 23.3538 9.74137 23.5283 9.59033C23.7054 9.43929 23.7939 9.22445 23.7939 8.9458V8.58643ZM27.4854 12.5317C26.876 12.5317 26.4098 12.425 26.0869 12.2114C25.7666 12.0005 25.6064 11.7036 25.6064 11.3208C25.6064 11.0578 25.6885 10.8377 25.8525 10.6606C26.0166 10.4836 26.2575 10.3573 26.5752 10.2817C26.4528 10.2297 26.346 10.145 26.2549 10.0278C26.1637 9.90804 26.1182 9.78174 26.1182 9.64893C26.1182 9.48226 26.1663 9.34424 26.2627 9.23486C26.359 9.12288 26.4984 9.01351 26.6807 8.90674C26.4515 8.80778 26.2692 8.64893 26.1338 8.43018C26.001 8.21143 25.9346 7.95361 25.9346 7.65674C25.9346 7.33903 26.0036 7.0695 26.1416 6.84814C26.2822 6.62419 26.4854 6.45361 26.751 6.33643C27.0192 6.21924 27.3447 6.16064 27.7275 6.16064C27.8083 6.16064 27.902 6.16585 28.0088 6.17627C28.1156 6.18669 28.2132 6.1984 28.3018 6.21143C28.3929 6.22445 28.4541 6.23486 28.4854 6.24268H30.0088V6.84814L29.3252 7.02393C29.3877 7.12028 29.4346 7.22314 29.4658 7.33252C29.4971 7.44189 29.5127 7.55778 29.5127 7.68018C29.5127 8.14893 29.3486 8.51481 29.0205 8.77783C28.695 9.03825 28.2419 9.16846 27.6611 9.16846C27.5231 9.16064 27.3929 9.15023 27.2705 9.13721C27.2106 9.18408 27.165 9.23356 27.1338 9.28564C27.1025 9.33773 27.0869 9.39242 27.0869 9.44971C27.0869 9.507 27.1104 9.55518 27.1572 9.59424C27.2067 9.6307 27.2796 9.65934 27.376 9.68018C27.4749 9.6984 27.5973 9.70752 27.7432 9.70752H28.4854C28.9645 9.70752 29.3291 9.81038 29.5791 10.0161C29.8317 10.2218 29.958 10.5239 29.958 10.9224C29.958 11.4328 29.7445 11.8286 29.3174 12.1099C28.8929 12.3911 28.2822 12.5317 27.4854 12.5317ZM27.5361 11.7544C27.82 11.7544 28.0635 11.7271 28.2666 11.6724C28.4723 11.6203 28.6299 11.5448 28.7393 11.4458C28.8486 11.3494 28.9033 11.2336 28.9033 11.0981C28.9033 10.9888 28.8708 10.9015 28.8057 10.8364C28.7432 10.7739 28.6468 10.7297 28.5166 10.7036C28.389 10.6776 28.2249 10.6646 28.0244 10.6646H27.4072C27.2614 10.6646 27.1299 10.688 27.0127 10.7349C26.8981 10.7817 26.807 10.8468 26.7393 10.9302C26.6715 11.0161 26.6377 11.1151 26.6377 11.2271C26.6377 11.3911 26.7158 11.52 26.8721 11.6138C27.0309 11.7075 27.2523 11.7544 27.5361 11.7544ZM27.7275 8.44189C27.9515 8.44189 28.1156 8.37288 28.2197 8.23486C28.3239 8.09684 28.376 7.90934 28.376 7.67236C28.376 7.40934 28.3213 7.21273 28.2119 7.08252C28.1051 6.94971 27.9437 6.8833 27.7275 6.8833C27.5088 6.8833 27.3447 6.94971 27.2354 7.08252C27.126 7.21273 27.0713 7.40934 27.0713 7.67236C27.0713 7.90934 27.1247 8.09684 27.2314 8.23486C27.3408 8.37288 27.5062 8.44189 27.7275 8.44189ZM32.5205 6.15283C33.1064 6.15283 33.5557 6.28044 33.8682 6.53564C34.1807 6.79085 34.3369 7.17887 34.3369 7.69971V10.6099H33.5049L33.2744 10.0161H33.2432C33.1182 10.1724 32.9906 10.3 32.8604 10.3989C32.7301 10.4979 32.5804 10.5708 32.4111 10.6177C32.2419 10.6646 32.0361 10.688 31.7939 10.688C31.5361 10.688 31.3044 10.6385 31.0986 10.5396C30.8955 10.4406 30.7354 10.2896 30.6182 10.0864C30.501 9.8807 30.4424 9.62028 30.4424 9.30518C30.4424 8.84163 30.6051 8.50049 30.9307 8.28174C31.2562 8.06038 31.7445 7.93799 32.3955 7.91455L33.1533 7.89111V7.69971C33.1533 7.47054 33.0934 7.30257 32.9736 7.1958C32.8538 7.08903 32.6872 7.03564 32.4736 7.03564C32.2627 7.03564 32.0557 7.06559 31.8525 7.12549C31.6494 7.18538 31.4463 7.2609 31.2432 7.35205L30.8486 6.54736C31.0804 6.42497 31.3395 6.32861 31.626 6.2583C31.915 6.18799 32.2132 6.15283 32.5205 6.15283ZM33.1533 8.58643L32.6924 8.60205C32.307 8.61247 32.0387 8.68148 31.8877 8.80908C31.7393 8.93669 31.665 9.10465 31.665 9.31299C31.665 9.49528 31.7184 9.62549 31.8252 9.70361C31.932 9.77913 32.0713 9.81689 32.2432 9.81689C32.4984 9.81689 32.7132 9.74137 32.8877 9.59033C33.0648 9.43929 33.1533 9.22445 33.1533 8.9458V8.58643ZM38.0049 6.16064C38.0648 6.16064 38.1338 6.16455 38.2119 6.17236C38.2926 6.17757 38.3577 6.18538 38.4072 6.1958L38.3174 7.31299C38.2783 7.29997 38.2223 7.29085 38.1494 7.28564C38.0791 7.27783 38.0179 7.27393 37.9658 7.27393C37.8122 7.27393 37.6624 7.29346 37.5166 7.33252C37.3734 7.37158 37.2445 7.43538 37.1299 7.52393C37.0153 7.60986 36.9242 7.72445 36.8564 7.86768C36.7913 8.0083 36.7588 8.18148 36.7588 8.38721V10.6099H35.5674V6.24268H36.4697L36.6455 6.97705H36.7041C36.79 6.82861 36.8968 6.6932 37.0244 6.5708C37.1546 6.4458 37.3018 6.34684 37.4658 6.27393C37.6325 6.1984 37.8122 6.16064 38.0049 6.16064Z" fill="white"/>
</svg>
