<svg width="100" height="100" viewBox="0 0 100 100" fill="none" xmlns="http://www.w3.org/2000/svg">
<circle cx="50" cy="50" r="50" fill="#333333" fill-opacity="0.3"/>
<g clip-path="url(#clip0_235_871)">
<path d="M51.3466 37.1801L52.8199 38.6534M51.9716 36.5551C52.1669 36.3598 52.4319 36.25 52.7082 36.25C52.9845 36.25 53.2495 36.3598 53.4449 36.5551C53.6402 36.7505 53.75 37.0155 53.75 37.2918C53.75 37.5681 53.6402 37.8331 53.4449 38.0284L47.7083 43.765H46.25V42.2767L51.9716 36.5551Z" stroke="white" stroke-width="1.2" stroke-linecap="round" stroke-linejoin="round"/>
</g>
<path d="M21.0957 60H19.6836V52.6289H17.1758V51.4336H23.5977V52.6289H21.0957V60ZM28.0566 53.3906C28.166 53.3906 28.2852 53.3965 28.4141 53.4082C28.543 53.4199 28.6543 53.4355 28.748 53.4551L28.6191 54.7441C28.5371 54.7207 28.4355 54.7031 28.3145 54.6914C28.1973 54.6797 28.0918 54.6738 27.998 54.6738C27.752 54.6738 27.5176 54.7148 27.2949 54.7969C27.0723 54.875 26.875 54.9961 26.7031 55.1602C26.5312 55.3203 26.3965 55.5215 26.2988 55.7637C26.2012 56.0059 26.1523 56.2871 26.1523 56.6074V60H24.7695V53.5137H25.8477L26.0352 54.6562H26.0996C26.2285 54.4258 26.3887 54.2148 26.5801 54.0234C26.7715 53.832 26.9902 53.6797 27.2363 53.5664C27.4863 53.4492 27.7598 53.3906 28.0566 53.3906ZM35.6914 56.7422C35.6914 57.2812 35.6211 57.7598 35.4805 58.1777C35.3398 58.5957 35.1348 58.9492 34.8652 59.2383C34.5957 59.5234 34.2715 59.7422 33.8926 59.8945C33.5137 60.043 33.0859 60.1172 32.6094 60.1172C32.1641 60.1172 31.7559 60.043 31.3848 59.8945C31.0137 59.7422 30.6914 59.5234 30.418 59.2383C30.1484 58.9492 29.9395 58.5957 29.791 58.1777C29.6426 57.7598 29.5684 57.2812 29.5684 56.7422C29.5684 56.0273 29.6914 55.4219 29.9375 54.9258C30.1875 54.4258 30.543 54.0449 31.0039 53.7832C31.4648 53.5215 32.0137 53.3906 32.6504 53.3906C33.248 53.3906 33.7754 53.5215 34.2324 53.7832C34.6895 54.0449 35.0469 54.4258 35.3047 54.9258C35.5625 55.4258 35.6914 56.0312 35.6914 56.7422ZM30.9863 56.7422C30.9863 57.2148 31.043 57.6191 31.1562 57.9551C31.2734 58.291 31.4531 58.5488 31.6953 58.7285C31.9375 58.9043 32.25 58.9922 32.6328 58.9922C33.0156 58.9922 33.3281 58.9043 33.5703 58.7285C33.8125 58.5488 33.9902 58.291 34.1035 57.9551C34.2168 57.6191 34.2734 57.2148 34.2734 56.7422C34.2734 56.2695 34.2168 55.8691 34.1035 55.541C33.9902 55.209 33.8125 54.957 33.5703 54.7852C33.3281 54.6094 33.0137 54.5215 32.627 54.5215C32.0566 54.5215 31.6406 54.7129 31.3789 55.0957C31.1172 55.4785 30.9863 56.0273 30.9863 56.7422ZM39.8867 60.1172C39.2734 60.1172 38.7422 59.998 38.293 59.7598C37.8438 59.5215 37.498 59.1562 37.2559 58.6641C37.0137 58.1719 36.8926 57.5469 36.8926 56.7891C36.8926 56 37.0254 55.3555 37.291 54.8555C37.5566 54.3555 37.9238 53.9863 38.3926 53.748C38.8652 53.5098 39.4062 53.3906 40.0156 53.3906C40.4023 53.3906 40.752 53.4297 41.0645 53.5078C41.3809 53.582 41.6484 53.6738 41.8672 53.7832L41.457 54.8848C41.2188 54.7871 40.9746 54.7051 40.7246 54.6387C40.4746 54.5723 40.2344 54.5391 40.0039 54.5391C39.625 54.5391 39.3086 54.623 39.0547 54.791C38.8047 54.959 38.6172 55.209 38.4922 55.541C38.3711 55.873 38.3105 56.2852 38.3105 56.7773C38.3105 57.2539 38.373 57.6562 38.498 57.9844C38.623 58.3086 38.8086 58.5547 39.0547 58.7227C39.3008 58.8867 39.6035 58.9688 39.9629 58.9688C40.3184 58.9688 40.6367 58.9258 40.918 58.8398C41.1992 58.7539 41.4648 58.6426 41.7148 58.5059V59.7012C41.4688 59.8418 41.2051 59.9453 40.9238 60.0117C40.6426 60.082 40.2969 60.1172 39.8867 60.1172ZM45.7812 53.3906C46.6016 53.3906 47.2207 53.5723 47.6387 53.9355C48.0605 54.2988 48.2715 54.8652 48.2715 55.6348V60H47.293L47.0293 59.0801H46.9824C46.7988 59.3145 46.6094 59.5078 46.4141 59.6602C46.2188 59.8125 45.9922 59.9258 45.7344 60C45.4805 60.0781 45.1699 60.1172 44.8027 60.1172C44.416 60.1172 44.0703 60.0469 43.7656 59.9062C43.4609 59.7617 43.2207 59.543 43.0449 59.25C42.8691 58.957 42.7812 58.5859 42.7812 58.1367C42.7812 57.4688 43.0293 56.9668 43.5254 56.6309C44.0254 56.2949 44.7793 56.1094 45.7871 56.0742L46.9121 56.0332V55.6934C46.9121 55.2441 46.8066 54.9238 46.5957 54.7324C46.3887 54.541 46.0957 54.4453 45.7168 54.4453C45.3926 54.4453 45.0781 54.4922 44.7734 54.5859C44.4688 54.6797 44.1719 54.7949 43.8828 54.9316L43.4375 53.959C43.7539 53.791 44.1133 53.6543 44.5156 53.5488C44.9219 53.4434 45.3438 53.3906 45.7812 53.3906ZM46.9062 56.9004L46.0684 56.9297C45.3809 56.9531 44.8984 57.0703 44.6211 57.2812C44.3438 57.4922 44.2051 57.7812 44.2051 58.1484C44.2051 58.4688 44.3008 58.7031 44.4922 58.8516C44.6836 58.9961 44.9355 59.0684 45.248 59.0684C45.7246 59.0684 46.1191 58.9336 46.4316 58.6641C46.748 58.3906 46.9062 57.9902 46.9062 57.4629V56.9004ZM53.4863 53.3906C53.5957 53.3906 53.7148 53.3965 53.8438 53.4082C53.9727 53.4199 54.084 53.4355 54.1777 53.4551L54.0488 54.7441C53.9668 54.7207 53.8652 54.7031 53.7441 54.6914C53.627 54.6797 53.5215 54.6738 53.4277 54.6738C53.1816 54.6738 52.9473 54.7148 52.7246 54.7969C52.502 54.875 52.3047 54.9961 52.1328 55.1602C51.9609 55.3203 51.8262 55.5215 51.7285 55.7637C51.6309 56.0059 51.582 56.2871 51.582 56.6074V60H50.1992V53.5137H51.2773L51.4648 54.6562H51.5293C51.6582 54.4258 51.8184 54.2148 52.0098 54.0234C52.2012 53.832 52.4199 53.6797 52.666 53.5664C52.916 53.4492 53.1895 53.3906 53.4863 53.3906ZM61.7363 54.5625H60.1602V60H58.7832V54.5625H57.7227V53.9004L58.7832 53.4961V53.0449C58.7832 52.4941 58.8691 52.0566 59.041 51.7324C59.2168 51.4082 59.4668 51.1758 59.791 51.0352C60.1191 50.8906 60.5098 50.8184 60.9629 50.8184C61.2598 50.8184 61.5312 50.8438 61.7773 50.8945C62.0234 50.9414 62.2305 50.9961 62.3984 51.0586L62.041 52.1016C61.9082 52.0586 61.7598 52.0195 61.5957 51.9844C61.4316 51.9453 61.2559 51.9258 61.0684 51.9258C60.7559 51.9258 60.5254 52.0234 60.377 52.2188C60.2324 52.4141 60.1602 52.6992 60.1602 53.0742V53.5137H61.7363V54.5625ZM68.5859 56.7422C68.5859 57.2812 68.5156 57.7598 68.375 58.1777C68.2344 58.5957 68.0293 58.9492 67.7598 59.2383C67.4902 59.5234 67.166 59.7422 66.7871 59.8945C66.4082 60.043 65.9805 60.1172 65.5039 60.1172C65.0586 60.1172 64.6504 60.043 64.2793 59.8945C63.9082 59.7422 63.5859 59.5234 63.3125 59.2383C63.043 58.9492 62.834 58.5957 62.6855 58.1777C62.5371 57.7598 62.4629 57.2812 62.4629 56.7422C62.4629 56.0273 62.5859 55.4219 62.832 54.9258C63.082 54.4258 63.4375 54.0449 63.8984 53.7832C64.3594 53.5215 64.9082 53.3906 65.5449 53.3906C66.1426 53.3906 66.6699 53.5215 67.127 53.7832C67.584 54.0449 67.9414 54.4258 68.1992 54.9258C68.457 55.4258 68.5859 56.0312 68.5859 56.7422ZM63.8809 56.7422C63.8809 57.2148 63.9375 57.6191 64.0508 57.9551C64.168 58.291 64.3477 58.5488 64.5898 58.7285C64.832 58.9043 65.1445 58.9922 65.5273 58.9922C65.9102 58.9922 66.2227 58.9043 66.4648 58.7285C66.707 58.5488 66.8848 58.291 66.998 57.9551C67.1113 57.6191 67.168 57.2148 67.168 56.7422C67.168 56.2695 67.1113 55.8691 66.998 55.541C66.8848 55.209 66.707 54.957 66.4648 54.7852C66.2227 54.6094 65.9082 54.5215 65.5215 54.5215C64.9512 54.5215 64.5352 54.7129 64.2734 55.0957C64.0117 55.4785 63.8809 56.0273 63.8809 56.7422ZM72.582 59.0039C72.7617 59.0039 72.9395 58.9883 73.1152 58.957C73.291 58.9219 73.4512 58.8809 73.5957 58.834V59.877C73.4434 59.9434 73.2461 60 73.0039 60.0469C72.7617 60.0938 72.5098 60.1172 72.248 60.1172C71.8809 60.1172 71.5508 60.0566 71.2578 59.9355C70.9648 59.8105 70.7324 59.5977 70.5605 59.2969C70.3887 58.9961 70.3027 58.5801 70.3027 58.0488V54.5625H69.418V53.9473L70.3672 53.4609L70.8184 52.0723H71.6855V53.5137H73.543V54.5625H71.6855V58.0312C71.6855 58.3594 71.7676 58.6035 71.9316 58.7637C72.0957 58.9238 72.3125 59.0039 72.582 59.0039ZM80.6562 56.7422C80.6562 57.2812 80.5859 57.7598 80.4453 58.1777C80.3047 58.5957 80.0996 58.9492 79.8301 59.2383C79.5605 59.5234 79.2363 59.7422 78.8574 59.8945C78.4785 60.043 78.0508 60.1172 77.5742 60.1172C77.1289 60.1172 76.7207 60.043 76.3496 59.8945C75.9785 59.7422 75.6562 59.5234 75.3828 59.2383C75.1133 58.9492 74.9043 58.5957 74.7559 58.1777C74.6074 57.7598 74.5332 57.2812 74.5332 56.7422C74.5332 56.0273 74.6562 55.4219 74.9023 54.9258C75.1523 54.4258 75.5078 54.0449 75.9688 53.7832C76.4297 53.5215 76.9785 53.3906 77.6152 53.3906C78.2129 53.3906 78.7402 53.5215 79.1973 53.7832C79.6543 54.0449 80.0117 54.4258 80.2695 54.9258C80.5273 55.4258 80.6562 56.0312 80.6562 56.7422ZM75.9512 56.7422C75.9512 57.2148 76.0078 57.6191 76.1211 57.9551C76.2383 58.291 76.418 58.5488 76.6602 58.7285C76.9023 58.9043 77.2148 58.9922 77.5977 58.9922C77.9805 58.9922 78.293 58.9043 78.5352 58.7285C78.7773 58.5488 78.9551 58.291 79.0684 57.9551C79.1816 57.6191 79.2383 57.2148 79.2383 56.7422C79.2383 56.2695 79.1816 55.8691 79.0684 55.541C78.9551 55.209 78.7773 54.957 78.5352 54.7852C78.293 54.6094 77.9785 54.5215 77.5918 54.5215C77.0215 54.5215 76.6055 54.7129 76.3438 55.0957C76.082 55.4785 75.9512 56.0273 75.9512 56.7422Z" fill="white"/>
<defs>
<clipPath id="clip0_235_871">
<rect width="10" height="10" fill="white" transform="translate(45 35)"/>
</clipPath>
</defs>
</svg>
