<svg width="39" height="38" viewBox="0 0 39 38" fill="none" xmlns="http://www.w3.org/2000/svg">
<circle cx="19.2275" cy="18.9513" r="18.8618" fill="#333333"/>
<g clip-path="url(#clip0_235_733)">
<path d="M29.5935 19.8638C28.5839 20.2003 27.5279 20.3976 26.4603 20.4479C26.8162 16.3747 25.2419 12.5491 22.4684 9.91107C26.588 11.1102 29.6013 14.9164 29.6013 19.4228C29.6013 19.5698 29.5974 19.7168 29.5935 19.8638ZM29.4427 21.206C29.2183 22.4438 28.7619 23.6043 28.1198 24.6371C24.3483 26.5131 19.6988 26.2849 16.055 23.6894C16.9718 22.2891 18.198 21.0707 19.7104 20.1384C22.8011 21.8095 26.2901 22.1034 29.4427 21.206ZM20.3139 19.0592C20.2172 15.5431 18.7241 12.3789 16.3722 10.0967C17.4089 9.72153 18.5306 9.52039 19.6988 9.52039C19.8033 9.52039 19.9038 9.52039 20.0044 9.52425C23.5167 11.8529 25.6403 15.9918 25.2148 20.444C23.5476 20.3512 21.8727 19.8986 20.31 19.0554L20.3139 19.0592ZM15.1344 10.6344C15.9313 11.3423 16.6314 12.1585 17.2116 13.0559C13.5059 14.7849 10.98 18.0612 10.0788 21.7785C9.89309 21.0242 9.79639 20.2351 9.79639 19.4228C9.79639 15.6011 11.9625 12.2861 15.1344 10.6344ZM17.8266 14.1351C18.5809 15.6282 19.0258 17.3031 19.0761 19.0747C16.0821 20.9159 14.0862 23.79 13.2854 26.9657C12.3494 26.1689 11.5603 25.2018 10.9723 24.111C11.2315 19.9063 13.7535 15.9918 17.8228 14.1351H17.8266ZM19.6988 29.3253C17.7377 29.3253 15.908 28.7566 14.3685 27.7703C14.5851 26.7259 14.941 25.7163 15.4284 24.7647C18.7782 27.105 22.8746 27.6542 26.5454 26.5789C24.7661 28.2809 22.3562 29.3253 19.6988 29.3253Z" fill="white"/>
</g>
<defs>
<clipPath id="clip0_235_733">
<rect width="19.8049" height="19.8049" fill="white" transform="translate(9.79639 9.52039)"/>
</clipPath>
</defs>
</svg>
