<svg width="199" height="120" viewBox="0 0 199 120" fill="none" xmlns="http://www.w3.org/2000/svg">
<path d="M77.9096 32.203L97.4786 52.1153L103.452 34.194L69.9447 0L53.6716 51.9778L71.2722 52.1153L77.9096 32.203Z" fill="#307FE2"/>
<path d="M121.602 19.9351L102.01 0L96.0366 17.9438L129.567 52.1153L145.84 0.160258L128.24 0L121.602 19.9351Z" fill="#F2B025"/>
<path d="M0 92.3976L9.29239 67.9078H14.0759L23.3683 92.3976H18.2186L16.09 86.1949H6.98074L4.85219 92.3976H0ZM8.26245 82.3726H14.7625L11.5354 72.8514L8.26245 82.3726Z" fill="#1F1F1F"/>
<path d="M25.9318 98.394L27.8772 95.1897C29.1818 96.0594 30.8526 96.5173 32.9125 96.5173C34.034 96.5173 34.9724 96.1739 35.7506 95.4644C36.5059 94.7778 36.895 93.8166 36.895 92.6264V90.7496C36.2999 91.2074 35.659 91.5964 34.9724 91.9168C34.2858 92.2372 33.3474 92.3976 32.203 92.3976C30.5551 92.3976 29.1589 92.0313 27.9688 91.3218C26.7786 90.5894 25.886 89.6052 25.2451 88.3464C24.6272 87.0876 24.3067 85.6456 24.3067 84.0205C24.3067 82.304 24.6958 80.7477 25.4969 79.3516C26.298 77.9554 27.4195 76.8568 28.8843 76.0329C30.3491 75.2089 32.0657 74.7969 34.034 74.7969C35.5217 74.7969 36.9178 74.9112 38.1767 75.163C39.4584 75.4147 40.4654 75.6666 41.2207 75.9412V92.6951C41.2207 94.2972 40.8545 95.6475 40.145 96.769C39.4355 97.8905 38.4513 98.7374 37.2154 99.3325C35.9794 99.9047 34.5604 100.202 32.9812 100.202C31.1959 100.202 29.7769 100.042 28.724 99.7216C27.6712 99.4012 26.7328 98.9661 25.9318 98.394ZM36.8721 85.0963V78.9166C36.5287 78.8022 36.1854 78.7106 35.7963 78.6419C35.4301 78.5733 34.8579 78.5505 34.0798 78.5505C32.9125 78.5505 31.9283 78.8022 31.1273 79.3058C30.3262 79.8093 29.7311 80.473 29.3191 81.274C28.9072 82.0751 28.7012 82.9678 28.7012 83.9291C28.7012 85.2566 29.0216 86.3551 29.6853 87.2706C30.3491 88.1861 31.4019 88.6211 32.8896 88.6211C35.5217 88.6211 36.8721 87.4537 36.8721 85.0963Z" fill="#1F1F1F"/>
<path d="M59.3019 87.2706L61.6594 89.9255C61.5907 89.9942 61.3847 90.2003 61.0643 90.5207C60.7439 90.8412 60.2632 91.2074 59.6224 91.5965C59.0044 91.9856 58.2033 92.306 57.2421 92.5806C56.2808 92.8553 55.1135 92.9925 53.7631 92.9925C51.9321 92.9925 50.33 92.6034 48.9796 91.8023C47.6292 91.0013 46.5535 89.9027 45.7982 88.4836C45.0429 87.0646 44.6538 85.4396 44.6538 83.6086C44.6538 81.9149 45.02 80.4043 45.7753 79.0311C46.5306 77.6807 47.5606 76.6051 48.8652 75.804C50.1698 75.0029 51.6804 74.6138 53.3969 74.6138C54.9991 74.6138 56.3266 74.8885 57.4023 75.4607C58.478 76.0329 59.3477 76.788 60.0115 77.7264C60.6752 78.6648 61.1559 79.7177 61.4534 80.9079C61.7509 82.0752 61.8883 83.2883 61.8883 84.5013V85.1191H49.0254C49.0254 85.9431 49.2543 86.6755 49.7349 87.2934C50.2155 87.9114 50.8106 88.415 51.543 88.7583C52.2754 89.1245 53.0307 89.2847 53.786 89.2847C54.9075 89.2847 55.8459 89.1473 56.5783 88.8956C57.3107 88.6438 57.9058 88.3463 58.3407 88.0259C58.7984 87.7283 59.096 87.4537 59.3019 87.2706ZM47.4004 72.5767L51.2226 67.3584H55.2966L59.1188 72.5767H55.2966L53.2367 69.7844L51.2226 72.5767H47.4004ZM48.9796 81.9837H57.4252C57.4252 81.3886 57.2649 80.8163 56.9674 80.2441C56.6699 79.6719 56.2121 79.1913 55.617 78.8022C55.022 78.4131 54.2895 78.23 53.374 78.23C52.4128 78.23 51.6117 78.4131 50.9708 78.8022C50.33 79.1913 49.8265 79.649 49.4831 80.2441C49.1627 80.8163 48.9796 81.3886 48.9796 81.9837Z" fill="#1F1F1F"/>
<path d="M65.207 92.3976V75.186H69.3725L69.487 77.1314C69.9218 76.6508 70.5627 76.1243 71.3866 75.5979C72.2106 75.0715 73.3092 74.8197 74.6596 74.8197C76.7881 74.8197 78.4132 75.4606 79.5575 76.7423C80.7019 78.024 81.2741 79.7635 81.2741 81.9379V92.3976H76.9255V81.9607C76.9255 80.8849 76.6279 80.0382 76.0328 79.4202C75.4378 78.8022 74.6596 78.5047 73.6983 78.5047C72.5081 78.5047 71.5011 78.9395 70.7229 79.8321C69.9447 80.7019 69.5556 81.8004 69.5556 83.0592V92.3976H65.207Z" fill="#1F1F1F"/>
<path d="M98.0508 87.3393L100.614 90.1316C99.8131 90.9784 98.8519 91.6651 97.7304 92.1915C96.6089 92.695 95.3271 92.9698 93.8852 92.9698C91.9169 92.9698 90.2461 92.5805 88.8728 91.8023C87.4996 91.0242 86.4467 89.9485 85.7143 88.5753C84.9819 87.202 84.6386 85.5998 84.6386 83.7917C84.6386 82.1209 85.0277 80.5875 85.8059 79.1913C86.5841 77.7952 87.6827 76.6736 89.0559 75.8496C90.4292 75.0256 92.0542 74.5908 93.8852 74.5908C95.2814 74.5908 96.5631 74.8427 97.7075 75.3462C98.8518 75.8498 99.836 76.5363 100.637 77.3831L97.8906 80.1755C97.4328 79.6033 96.8606 79.1684 96.174 78.848C95.5102 78.5276 94.7321 78.3672 93.8852 78.3672C92.7866 78.3672 91.8711 78.6191 91.1387 79.1455C90.4063 79.649 89.8799 80.3357 89.5137 81.1368C89.1475 81.9607 88.9873 82.8305 88.9873 83.7689C88.9873 84.6157 89.1704 85.4625 89.5137 86.3093C89.857 87.1333 90.4063 87.8199 91.1387 88.3692C91.8711 88.9185 92.7637 89.1703 93.8852 89.1703C94.7321 89.1703 95.5331 89.01 96.2427 88.6667C96.9751 88.3463 97.5701 87.9114 98.0508 87.3393Z" fill="#1F1F1F"/>
<path d="M103.544 72.4623V67.9078H108.167V72.4623H103.544ZM103.704 92.3976V75.186H108.03V92.3976H103.704Z" fill="#1F1F1F"/>
<path d="M122.747 92.3976L122.632 90.7724C122.174 91.3446 121.442 91.8483 120.481 92.2831C119.519 92.718 118.444 92.9467 117.299 92.9467C116.361 92.9467 115.445 92.7408 114.53 92.3517C113.614 91.9627 112.859 91.3447 112.264 90.5207C111.669 89.6968 111.371 88.644 111.371 87.3623C111.371 85.3939 112.058 83.8833 113.454 82.8075C114.85 81.7318 116.681 81.1826 118.924 81.1826C119.336 81.1826 119.84 81.2053 120.412 81.2282C120.984 81.2511 121.717 81.2969 122.632 81.3426V80.9307C122.632 80.0839 122.289 79.3973 121.602 78.9166C120.916 78.436 120.023 78.1842 118.924 78.1842C117.711 78.1842 116.727 78.3445 115.995 78.665C115.262 78.9854 114.621 79.3287 114.049 79.6949L112.058 76.7651C112.516 76.4218 113.065 76.0786 113.706 75.7582C114.347 75.4378 115.125 75.163 116.063 74.9341C117.002 74.7052 118.146 74.6138 119.519 74.6138C121.717 74.6138 123.479 75.1859 124.806 76.3532C126.134 77.5204 126.798 79.0082 126.798 80.8621V92.4204H122.747V92.3976ZM122.655 86.3093V84.6158C122.083 84.57 121.488 84.5242 120.824 84.5013C120.16 84.4784 119.657 84.4555 119.313 84.4555C117.917 84.4555 116.933 84.7301 116.384 85.2794C115.812 85.8287 115.537 86.4695 115.537 87.179C115.537 87.9114 115.789 88.4836 116.315 88.8956C116.842 89.3075 117.62 89.5136 118.65 89.5136C119.336 89.5136 119.977 89.3764 120.572 89.0789C121.167 88.7813 121.671 88.3921 122.06 87.9114C122.449 87.4308 122.655 86.9044 122.655 86.3093Z" fill="#1F1F1F"/>
<path d="M135.747 92.3976L129.384 67.9078H134.442L138.448 86.2407L143.185 68.6172H147.374L152.157 86.2407L156.117 67.9078H160.969L154.538 92.3976H149.708L145.154 76.1929L140.53 92.3976H135.747Z" fill="#1F1F1F"/>
<path d="M175.686 87.2706L178.043 89.9255C177.975 89.9942 177.769 90.2003 177.448 90.5207C177.128 90.8412 176.647 91.2074 176.006 91.5965C175.388 91.9856 174.587 92.306 173.626 92.5806C172.665 92.8553 171.497 92.9926 170.147 92.9926C168.316 92.9926 166.714 92.6034 165.363 91.8023C164.013 91.0013 162.937 89.9027 162.182 88.4836C161.427 87.0646 161.038 85.4396 161.038 83.6086C161.038 81.9149 161.404 80.4043 162.159 79.0311C162.914 77.6807 163.944 76.6051 165.249 75.804C166.554 75.0029 168.064 74.6138 169.781 74.6138C171.383 74.6138 172.71 74.8885 173.786 75.4607C174.862 76.0329 175.732 76.788 176.395 77.7264C177.059 78.6648 177.54 79.7177 177.837 80.9079C178.135 82.0752 178.272 83.2883 178.272 84.5013V85.1191H165.409C165.409 85.9431 165.638 86.6755 166.119 87.2934C166.599 87.9114 167.194 88.415 167.927 88.7583C168.659 89.1245 169.415 89.2847 170.17 89.2847C171.291 89.2847 172.23 89.1473 172.962 88.8956C173.695 88.6438 174.29 88.3463 174.724 88.0259C175.159 87.7283 175.48 87.4537 175.686 87.2706ZM165.363 81.9837H173.809C173.809 81.3886 173.649 80.8163 173.351 80.2441C173.054 79.6719 172.596 79.1913 172.001 78.8022C171.406 78.4131 170.673 78.23 169.758 78.23C168.797 78.23 167.995 78.4131 167.355 78.8022C166.714 79.1913 166.21 79.649 165.867 80.2441C165.524 80.8163 165.363 81.3886 165.363 81.9837Z" fill="#1F1F1F"/>
<path d="M181.591 91.8482V67.9078H185.917V76.3532C186.214 76.0556 186.786 75.7352 187.633 75.369C188.48 75.0028 189.464 74.8196 190.631 74.8196C192.302 74.8196 193.721 75.2088 194.888 76.0099C196.056 76.8109 196.971 77.8638 197.589 79.1913C198.207 80.5188 198.528 81.9836 198.528 83.6086C198.528 85.3252 198.139 86.8815 197.337 88.3006C196.536 89.7196 195.415 90.8641 193.973 91.7109C192.531 92.5578 190.792 92.9925 188.8 92.9925C187.313 92.9925 185.939 92.8782 184.658 92.6264C183.399 92.3747 182.369 92.1228 181.591 91.8482ZM185.917 82.3726V88.8728C186.26 88.9643 186.603 89.0558 186.992 89.1244C187.381 89.1931 187.931 89.2389 188.709 89.2389C189.876 89.2389 190.86 88.9871 191.661 88.4378C192.462 87.9114 193.057 87.2248 193.469 86.3779C193.881 85.5311 194.087 84.6385 194.087 83.6772C194.087 82.8075 193.95 81.9608 193.653 81.1826C193.355 80.4044 192.897 79.7634 192.302 79.2827C191.684 78.8021 190.883 78.5733 189.922 78.5733C188.617 78.5733 187.633 78.9167 186.946 79.5805C186.26 80.29 185.917 81.2053 185.917 82.3726Z" fill="#1F1F1F"/>
<path d="M70.0134 119.679V106.382H78.3903V108.076H71.9359V111.943H76.811V113.66H71.9359V117.963H78.8709V119.679H70.0134Z" fill="#1F1F1F"/>
<path d="M80.1984 118.535L81.297 117.345C81.6403 117.688 82.0294 117.94 82.4872 118.146C82.9449 118.352 83.4942 118.444 84.1122 118.444C84.7073 118.444 85.2108 118.352 85.5999 118.146C85.989 117.963 86.195 117.643 86.195 117.231C86.195 116.933 86.1263 116.704 85.9661 116.544C85.8059 116.361 85.5312 116.224 85.1421 116.086C84.753 115.949 84.2266 115.789 83.54 115.629C83.0594 115.514 82.6016 115.354 82.1438 115.148C81.6861 114.942 81.3199 114.667 81.0224 114.301C80.7248 113.935 80.5875 113.454 80.5875 112.882C80.5875 112.287 80.7706 111.783 81.1139 111.371C81.4572 110.959 81.915 110.639 82.4872 110.433C83.0594 110.227 83.6315 110.112 84.2495 110.112C85.0277 110.112 85.7143 110.227 86.2865 110.433C86.8587 110.639 87.3393 110.936 87.7513 111.303L86.7672 112.539C86.4925 112.287 86.1492 112.081 85.7143 111.898C85.3024 111.715 84.7988 111.646 84.2495 111.646C83.6773 111.646 83.2196 111.738 82.8763 111.921C82.5329 112.104 82.3498 112.424 82.3498 112.836C82.3498 113.225 82.5787 113.523 83.0594 113.729C83.5171 113.912 84.1122 114.095 84.8446 114.278C85.4397 114.415 85.9661 114.598 86.4238 114.804C86.9045 115.033 87.2707 115.331 87.5682 115.697C87.8429 116.063 88.0031 116.544 88.0031 117.162C88.0031 117.78 87.82 118.284 87.4538 118.718C87.0876 119.13 86.6069 119.451 86.0348 119.679C85.4397 119.908 84.8217 120 84.1351 120C82.3956 119.954 81.0681 119.474 80.1984 118.535Z" fill="#1F1F1F"/>
<path d="M97.0666 117.231L98.1652 118.398C97.7532 118.856 97.2497 119.245 96.6317 119.519C96.0137 119.794 95.3271 119.954 94.5261 119.954C93.519 119.954 92.6721 119.748 91.9397 119.313C91.2073 118.879 90.658 118.306 90.2461 117.574C89.857 116.842 89.651 115.995 89.651 115.033C89.651 114.141 89.857 113.294 90.2689 112.562C90.6809 111.806 91.2531 111.211 91.9855 110.776C92.7179 110.341 93.5648 110.112 94.5032 110.112C95.2813 110.112 95.968 110.25 96.5859 110.524C97.181 110.799 97.7074 111.188 98.1194 111.669L96.9521 112.813C96.6775 112.47 96.3342 112.195 95.9451 111.989C95.556 111.783 95.0754 111.692 94.5261 111.692C93.8852 111.692 93.3359 111.852 92.8781 112.15C92.4204 112.447 92.0771 112.882 91.8253 113.385C91.5964 113.889 91.4591 114.438 91.4591 115.033C91.4591 115.606 91.5735 116.155 91.8253 116.658C92.0771 117.162 92.4204 117.597 92.8781 117.894C93.3359 118.215 93.8852 118.375 94.5032 118.375C95.0525 118.375 95.5331 118.261 95.968 118.055C96.4257 117.871 96.7919 117.574 97.0666 117.231Z" fill="#1F1F1F"/>
<path d="M103.841 119.954C102.903 119.954 102.056 119.725 101.301 119.291C100.546 118.856 99.9733 118.238 99.5614 117.505C99.1494 116.75 98.9434 115.926 98.9434 115.033C98.9434 114.141 99.1494 113.294 99.5614 112.562C99.9733 111.806 100.568 111.211 101.301 110.776C102.056 110.341 102.88 110.112 103.841 110.112C104.78 110.112 105.627 110.341 106.359 110.776C107.091 111.211 107.686 111.806 108.098 112.562C108.533 113.317 108.739 114.141 108.739 115.033C108.739 115.926 108.533 116.75 108.098 117.505C107.664 118.26 107.091 118.856 106.359 119.291C105.627 119.725 104.803 119.954 103.841 119.954ZM103.841 118.398C104.482 118.398 105.054 118.238 105.512 117.917C105.97 117.597 106.313 117.162 106.565 116.658C106.817 116.132 106.931 115.606 106.931 115.033C106.931 114.484 106.817 113.935 106.565 113.408C106.313 112.882 105.97 112.47 105.489 112.15C105.032 111.829 104.482 111.669 103.841 111.669C103.2 111.669 102.651 111.829 102.193 112.15C101.736 112.47 101.369 112.905 101.118 113.408C100.866 113.912 100.752 114.461 100.752 115.033C100.752 115.583 100.889 116.132 101.141 116.635C101.392 117.139 101.759 117.574 102.216 117.894C102.674 118.215 103.223 118.398 103.841 118.398Z" fill="#1F1F1F"/>
<path d="M110.776 119.679V106.382H112.562V119.679H110.776Z" fill="#1F1F1F"/>
<path d="M120.87 119.679L120.824 118.558C120.481 119.016 120.046 119.359 119.451 119.588C118.879 119.817 118.283 119.931 117.711 119.931C117.208 119.931 116.704 119.84 116.201 119.657C115.697 119.474 115.285 119.176 114.965 118.741C114.644 118.306 114.484 117.757 114.484 117.047C114.484 116.04 114.827 115.262 115.537 114.644C116.246 114.049 117.254 113.752 118.558 113.752C118.856 113.752 119.153 113.752 119.474 113.775C119.794 113.797 120.069 113.82 120.32 113.843C120.572 113.866 120.732 113.889 120.824 113.889V113.546C120.824 112.859 120.618 112.355 120.206 112.058C119.794 111.76 119.222 111.6 118.489 111.6C117.803 111.6 117.254 111.692 116.819 111.898C116.407 112.081 116.041 112.287 115.766 112.493L114.919 111.28C115.262 111.005 115.72 110.753 116.292 110.502C116.887 110.25 117.666 110.112 118.673 110.112C119.863 110.112 120.801 110.41 121.488 110.982C122.174 111.554 122.518 112.379 122.518 113.454V118.856C122.518 118.947 122.518 119.062 122.518 119.199C122.518 119.336 122.518 119.496 122.541 119.679H120.87ZM120.801 116.338V115.285C120.732 115.262 120.572 115.239 120.343 115.216C120.115 115.194 119.84 115.171 119.542 115.148C119.245 115.125 118.947 115.125 118.673 115.125C118.009 115.125 117.505 115.216 117.139 115.422C116.796 115.606 116.544 115.857 116.43 116.132C116.292 116.407 116.246 116.704 116.246 116.979C116.246 117.482 116.43 117.849 116.773 118.123C117.116 118.398 117.597 118.512 118.215 118.512C118.673 118.512 119.107 118.421 119.497 118.192C119.886 117.986 120.206 117.711 120.458 117.391C120.687 117.07 120.801 116.704 120.801 116.338Z" fill="#1F1F1F"/>
<path d="M126.775 119.679H124.99V111.303C124.99 111.211 124.99 111.097 124.99 110.982C124.99 110.868 124.99 110.662 124.967 110.41H126.683L126.752 111.898C126.889 111.692 127.095 111.463 127.37 111.188C127.622 110.936 127.965 110.708 128.354 110.524C128.743 110.341 129.224 110.25 129.796 110.25C130.002 110.25 130.185 110.273 130.345 110.296C130.505 110.318 130.666 110.364 130.803 110.41L130.414 112.081C130.185 111.989 129.865 111.943 129.498 111.943C128.995 111.943 128.537 112.081 128.125 112.333C127.713 112.584 127.393 112.928 127.164 113.363C126.935 113.797 126.798 114.255 126.798 114.782V119.679H126.775Z" fill="#1F1F1F"/>
</svg>
